<mxfile host="app.diagrams.net" modified="2024-03-02T17:46:52.521Z" agent="Mozilla/5.0 (Windows NT 10.0; Win64; x64) AppleWebKit/537.36 (KHTML, like Gecko) Chrome/121.0.0.0 Safari/537.36" etag="3Wjd1-lV5mOzfzXjCTHY" version="24.0.1" type="github">
  <diagram name="Page-1" id="-nDATtZStiNHtRLApp9_">
    <mxGraphModel dx="880" dy="460" grid="1" gridSize="10" guides="1" tooltips="1" connect="1" arrows="1" fold="1" page="1" pageScale="1" pageWidth="827" pageHeight="1169" math="0" shadow="0">
      <root>
        <mxCell id="0" />
        <mxCell id="1" parent="0" />
        <mxCell id="364Qgo00kIbYnpaA15bU-3" value="" style="edgeStyle=orthogonalEdgeStyle;rounded=0;orthogonalLoop=1;jettySize=auto;html=1;" edge="1" parent="1" source="364Qgo00kIbYnpaA15bU-1" target="364Qgo00kIbYnpaA15bU-2">
          <mxGeometry relative="1" as="geometry" />
        </mxCell>
        <mxCell id="364Qgo00kIbYnpaA15bU-1" value="Start" style="ellipse;whiteSpace=wrap;html=1;" vertex="1" parent="1">
          <mxGeometry x="350" y="200" width="120" height="80" as="geometry" />
        </mxCell>
        <mxCell id="364Qgo00kIbYnpaA15bU-5" value="" style="edgeStyle=orthogonalEdgeStyle;rounded=0;orthogonalLoop=1;jettySize=auto;html=1;" edge="1" parent="1" source="364Qgo00kIbYnpaA15bU-2" target="364Qgo00kIbYnpaA15bU-4">
          <mxGeometry relative="1" as="geometry">
            <Array as="points">
              <mxPoint x="480" y="400" />
              <mxPoint x="480" y="400" />
            </Array>
          </mxGeometry>
        </mxCell>
        <mxCell id="364Qgo00kIbYnpaA15bU-10" value="No" style="edgeLabel;html=1;align=center;verticalAlign=middle;resizable=0;points=[];" vertex="1" connectable="0" parent="364Qgo00kIbYnpaA15bU-5">
          <mxGeometry x="-0.1" y="-1" relative="1" as="geometry">
            <mxPoint as="offset" />
          </mxGeometry>
        </mxCell>
        <mxCell id="364Qgo00kIbYnpaA15bU-7" value="" style="edgeStyle=orthogonalEdgeStyle;rounded=0;orthogonalLoop=1;jettySize=auto;html=1;" edge="1" parent="1" source="364Qgo00kIbYnpaA15bU-2" target="364Qgo00kIbYnpaA15bU-6">
          <mxGeometry relative="1" as="geometry" />
        </mxCell>
        <mxCell id="364Qgo00kIbYnpaA15bU-11" value="Yes" style="edgeLabel;html=1;align=center;verticalAlign=middle;resizable=0;points=[];" vertex="1" connectable="0" parent="364Qgo00kIbYnpaA15bU-7">
          <mxGeometry x="-0.1" relative="1" as="geometry">
            <mxPoint as="offset" />
          </mxGeometry>
        </mxCell>
        <mxCell id="364Qgo00kIbYnpaA15bU-2" value="Decision" style="rhombus;whiteSpace=wrap;html=1;" vertex="1" parent="1">
          <mxGeometry x="370" y="360" width="80" height="80" as="geometry" />
        </mxCell>
        <mxCell id="364Qgo00kIbYnpaA15bU-4" value="Process if the answer is no" style="whiteSpace=wrap;html=1;" vertex="1" parent="1">
          <mxGeometry x="510" y="370" width="120" height="60" as="geometry" />
        </mxCell>
        <mxCell id="364Qgo00kIbYnpaA15bU-6" value="Process if the answer is yes" style="whiteSpace=wrap;html=1;" vertex="1" parent="1">
          <mxGeometry x="190" y="370" width="120" height="60" as="geometry" />
        </mxCell>
      </root>
    </mxGraphModel>
  </diagram>
</mxfile>
